<?xml version="1.0"?>

<!DOCTYPE svg PUBLIC '-//W3C//DTD SVG 1.0//EN' 'http://www.w3.org/TR/2001/REC-SVG-20010904/DTD/svg10.dtd'>
<svg fill-opacity="1" xmlns:xlink="http://www.w3.org/1999/xlink" color-rendering="auto" color-interpolation="auto" text-rendering="auto" stroke="black" stroke-linecap="square" stroke-miterlimit="10" shape-rendering="auto" stroke-opacity="1" fill="black" stroke-dasharray="none" font-weight="normal" stroke-width="1" xmlns="http://www.w3.org/2000/svg" font-family="&apos;Dialog&apos;" font-style="normal" stroke-linejoin="miter" font-size="12" stroke-dashoffset="0" image-rendering="auto">
  <!--Unicode Character 'CLIPBOARD' (U+1F4CB)-->
  <defs id="genericDefs" />
  <g>
    <g>
      <path d="M207 316.8281 Q207 319.5 204.1875 325.6875 Q202.2188 330.0469 196.0312 334.8281 Q189.8438 339.6094 185.4844 339.6094 L33.0469 339.6094 Q30.5156 339.6094 25.7344 337.1484 Q20.9531 334.6875 16.4531 328.5 Q11.5312 321.8906 11.5312 316.6875 L11.5312 126.2812 Q11.5312 124.0312 13.8516 117.8438 Q16.1719 111.6562 23.0625 107.0859 Q29.9531 102.5156 36.5625 102.5156 L76.2188 102.5156 Q78.3281 102.5156 79.0312 100.9688 Q79.4531 100.125 79.4531 94.5 Q79.4531 89.2969 82.9688 87.75 Q84.7969 86.9062 90.9844 86.7656 L92.5312 86.7656 Q92.9531 83.25 93.5156 79.7344 Q94.0781 76.2188 96.4688 73.4062 Q97.7344 72 102.2344 70.2422 Q106.7344 68.4844 108.8438 68.4844 Q111.9375 68.4844 117 71.0859 Q122.0625 73.6875 123.1875 76.2188 Q124.875 80.1562 124.7344 86.3438 Q125.1562 86.4844 130.9219 86.4844 Q138.2344 86.4844 138.2344 97.0312 Q138.2344 102.5156 141.75 102.5156 L181.9688 102.5156 Q189.4219 102.5156 196.2422 107.7188 Q203.0625 112.9219 205.3125 119.9531 Q207 125.4375 207 126.1406 L207 316.8281 ZM171.1406 130.7812 L171.1406 116.8594 Q171.1406 114.4688 167.2031 111.5859 Q163.2656 108.7031 160.7344 108.7031 L143.1562 108.7031 Q130.9219 108.7031 130.3594 94.6406 L127.8281 94.6406 Q121.9219 94.7812 120.375 92.5312 Q119.5312 91.4062 117.2812 81.2812 Q115.875 75.0938 108.8438 75.0938 Q101.3906 75.0938 99.4922 85.0078 Q97.5938 94.9219 90.5625 94.9219 Q89.0156 94.9219 87.1875 94.6406 Q86.7656 108.7031 74.5312 108.7031 L57.375 108.7031 Q54.1406 108.7031 50.3438 111.7266 Q46.5469 114.75 46.5469 117.8438 L46.5469 130.7812 L171.1406 130.7812 ZM195.0469 318.6562 L195.0469 123.8906 Q195.0469 120.7969 190.6875 117 Q186.3281 113.2031 183.2344 113.2031 L176.0625 113.2031 Q176.9062 114.8906 176.9062 116.1562 L176.9062 137.9531 L40.7812 137.9531 L40.7812 113.2031 L35.2969 113.2031 Q32.2031 113.2031 27.8438 117.1406 Q23.4844 121.0781 23.4844 124.0312 L23.4844 318.5156 Q23.4844 321.75 28.125 325.5469 Q32.7656 329.3438 36.1406 329.3438 L182.3906 329.3438 Q185.625 329.3438 190.3359 325.4766 Q195.0469 321.6094 195.0469 318.6562 ZM115.0312 86.2031 Q115.0312 91.9688 108.9844 91.9688 Q103.0781 91.9688 103.0781 85.9219 Q103.0781 80.0156 108.9844 80.0156 Q115.0312 80.0156 115.0312 86.2031 Z" stroke="none" />
    </g>
  </g>
</svg>
