<?xml version="1.0" encoding="utf-8"?>
<!-- Generator: Adobe Illustrator 16.0.0, SVG Export Plug-In . SVG Version: 6.00 Build 0)  -->
<!DOCTYPE svg PUBLIC "-//W3C//DTD SVG 1.1//EN" "http://www.w3.org/Graphics/SVG/1.1/DTD/svg11.dtd">
<svg version="1.1"
	 id="Layer_1" image-rendering="auto" shape-rendering="auto" text-rendering="auto" color-rendering="auto" color-interpolation="auto"
	 xmlns="http://www.w3.org/2000/svg" xmlns:xlink="http://www.w3.org/1999/xlink" x="0px" y="0px" width="612px" height="792px"
	 viewBox="0 0 612 792" enable-background="new 0 0 612 792" xml:space="preserve">
<g>
	<g>
		<path d="M549.22,697.857c0,4.672-2.459,12.417-7.377,23.236c-3.442,7.623-10.573,15.614-21.393,23.975
			s-20.04,12.541-27.663,12.541H92.964c-4.426,0-10.819-2.151-19.18-6.455c-8.36-4.303-16.475-11.864-24.343-22.684
			c-8.606-11.557-12.91-21.885-12.91-30.982v-499.41c0-3.935,2.029-11.312,6.086-22.131s12.11-20.225,24.159-28.216
			c12.049-7.991,23.852-11.987,35.409-11.987h104.013c3.688,0,6.147-1.352,7.376-4.057c0.738-1.476,1.106-7.131,1.106-16.967
			c0-9.098,3.074-15,9.221-17.704c3.197-1.476,10.205-2.336,21.024-2.582h4.057c0.738-6.147,1.599-12.295,2.582-18.442
			c0.983-6.147,3.565-11.68,7.746-16.598c2.213-2.459,7.254-5.225,15.123-8.299s13.647-4.61,17.335-4.61
			c5.41,0,12.541,2.274,21.393,6.823c8.852,4.549,14.262,9.037,16.229,13.463c2.951,6.885,4.304,15.737,4.058,26.557
			c0.737,0.246,6.147,0.369,16.229,0.369c12.787,0,19.18,9.221,19.18,27.663c0,9.59,3.074,14.385,9.222,14.385h105.488
			c13.032,0,25.512,4.549,37.438,13.647c11.926,9.099,19.855,19.795,23.79,32.089c2.95,9.59,4.426,15,4.426,16.229V697.857z
			 M455.165,209.881v-36.515c0-4.18-3.442-8.791-10.327-13.832c-6.885-5.041-12.54-7.562-16.967-7.562h-46.104
			c-21.394,0-32.581-12.294-33.564-36.884h-6.64c-10.328,0.246-16.844-1.599-19.549-5.533c-1.475-1.967-4.18-11.803-8.114-29.507
			c-2.459-10.819-9.835-16.229-22.13-16.229c-13.032,0-21.208,8.667-24.528,26.003c-3.32,17.335-11.127,26.003-23.421,26.003
			c-2.705,0-5.656-0.246-8.852-0.737c-0.738,24.589-11.803,36.884-33.196,36.884h-44.999c-5.656,0-11.803,2.644-18.442,7.93
			c-6.639,5.287-9.958,10.635-9.958,16.044v33.934H455.165z M517.868,702.652V191.808c0-5.41-3.812-11.434-11.434-18.073
			c-7.623-6.639-14.139-9.959-19.549-9.959h-18.811c1.476,2.951,2.213,5.533,2.213,7.746v57.17H113.25v-64.916H98.865
			c-5.41,0-11.926,3.443-19.548,10.328c-7.623,6.885-11.434,12.909-11.434,18.073v510.107c0,5.655,4.057,11.803,12.172,18.442
			c8.114,6.639,15.122,9.958,21.024,9.958h383.594c5.655,0,12.602-3.381,20.84-10.143
			C513.75,713.778,517.868,707.815,517.868,702.652z M307.998,92.958c0,10.082-5.287,15.123-15.86,15.123
			c-10.327,0-15.491-5.287-15.491-15.86c0-10.328,5.164-15.491,15.491-15.491C302.711,76.729,307.998,82.139,307.998,92.958z"/>
	</g>
</g>
</svg>
