<?xml version="1.0" encoding="utf-8"?>
<!-- Generator: Adobe Illustrator 16.0.0, SVG Export Plug-In . SVG Version: 6.00 Build 0)  -->
<!DOCTYPE svg PUBLIC "-//W3C//DTD SVG 1.1//EN" "http://www.w3.org/Graphics/SVG/1.1/DTD/svg11.dtd">
<svg version="1.1"
	 id="svg2" xmlns:osb="http://www.openswatchbook.org/uri/2009/osb" xmlns:dc="http://purl.org/dc/elements/1.1/" xmlns:cc="http://creativecommons.org/ns#" xmlns:rdf="http://www.w3.org/1999/02/22-rdf-syntax-ns#" xmlns:svg="http://www.w3.org/2000/svg"
	 xmlns="http://www.w3.org/2000/svg" xmlns:xlink="http://www.w3.org/1999/xlink" x="0px" y="0px" width="86px" height="86px"
	 viewBox="0 0 86 86" enable-background="new 0 0 86 86" xml:space="preserve">
<g id="layer2" transform="translate(0,-4)">
	<path id="path11" fill="#E50055" d="M43.22,4.154c-23.583,0-42.701,19.127-42.701,42.721c0,0.408,0,41.297,0,41.297
		c0,0.787,0.637,1.424,1.423,1.424h82.554c0.786,0,1.423-0.637,1.423-1.424c0,0,0-40.928,0-41.297
		C85.92,23.282,66.803,4.154,43.22,4.154z"/>
</g>
<g id="layer3">
	<g id="g6751" transform="translate(1.0106349,4.968095)">
		<rect id="rect4178" x="8.569" y="37.13" fill="none" stroke="#FFFFFF" stroke-width="0.6915" width="7.959" height="4.443"/>
		
			<rect id="rect4178-1" x="18.304" y="37.13" fill="#FFFFFF" stroke="#FFFFFF" stroke-width="0.6914" width="7.958" height="4.443"/>
		<rect id="rect4178-1-6" x="28.039" y="37.13" fill="none" stroke="#FFFFFF" stroke-width="0.6914" width="7.959" height="4.443"/>
		
			<rect id="rect4178-1-5" x="57.245" y="37.13" fill="#FFFFFF" stroke="#FFFFFF" stroke-width="0.6914" width="7.959" height="4.443"/>
		
			<rect id="rect4178-1-2" x="37.775" y="37.13" fill="#FFFFFF" stroke="#FFFFFF" stroke-width="0.6914" width="7.959" height="4.443"/>
		<rect id="rect4178-1-24" x="47.51" y="37.13" fill="none" stroke="#FFFFFF" stroke-width="0.6914" width="7.959" height="4.443"/>
		<rect id="rect4178-0" x="66.98" y="37.254" fill="none" stroke="#FFFFFF" stroke-width="0.6914" width="7.959" height="4.442"/>
		
			<rect id="rect4178-4" x="8.668" y="43.803" fill="#FFFFFF" stroke="#FFFFFF" stroke-width="0.6914" width="7.959" height="4.441"/>
		
			<rect id="rect4178-1-3" x="18.403" y="43.803" fill="none" stroke="#FFFFFF" stroke-width="0.6914" width="7.958" height="4.441"/>
		
			<rect id="rect4178-1-6-0" x="28.138" y="43.803" fill="#FFFFFF" stroke="#FFFFFF" stroke-width="0.6914" width="7.959" height="4.441"/>
		
			<rect id="rect4178-1-5-6" x="57.344" y="43.803" fill="none" stroke="#FFFFFF" stroke-width="0.6914" width="7.959" height="4.441"/>
		
			<rect id="rect4178-1-2-7" x="37.874" y="43.803" fill="none" stroke="#FFFFFF" stroke-width="0.6914" width="7.959" height="4.441"/>
		
			<rect id="rect4178-1-24-4" x="47.609" y="43.803" fill="#FFFFFF" stroke="#FFFFFF" stroke-width="0.6914" width="7.959" height="4.441"/>
		
			<rect id="rect4178-0-2" x="67.079" y="43.926" fill="#FFFFFF" stroke="#FFFFFF" stroke-width="0.6914" width="7.959" height="4.441"/>
		<rect id="rect4178-4-0" x="8.47" y="50.409" fill="none" stroke="#FFFFFF" stroke-width="0.6914" width="7.959" height="4.443"/>
		
			<rect id="rect4178-1-3-0" x="18.205" y="50.409" fill="#FFFFFF" stroke="#FFFFFF" stroke-width="0.6914" width="7.959" height="4.443"/>
		
			<rect id="rect4178-1-6-0-2" x="27.94" y="50.409" fill="none" stroke="#FFFFFF" stroke-width="0.6914" width="7.959" height="4.443"/>
		
			<rect id="rect4178-1-5-6-9" x="57.146" y="50.409" fill="#FFFFFF" stroke="#FFFFFF" stroke-width="0.6914" width="7.959" height="4.443"/>
		
			<rect id="rect4178-1-2-7-4" x="37.675" y="50.409" fill="#FFFFFF" stroke="#FFFFFF" stroke-width="0.6914" width="7.958" height="4.443"/>
		
			<rect id="rect4178-1-24-4-1" x="47.411" y="50.409" fill="none" stroke="#FFFFFF" stroke-width="0.6914" width="7.959" height="4.443"/>
		
			<rect id="rect4178-0-2-9" x="66.881" y="50.533" fill="none" stroke="#FFFFFF" stroke-width="0.6914" width="7.959" height="4.442"/>
		
			<rect id="rect4178-4-0-2" x="8.793" y="57.024" fill="#FFFFFF" stroke="#FFFFFF" stroke-width="0.6914" width="7.958" height="4.442"/>
		
			<rect id="rect4178-1-3-0-0" x="18.528" y="57.024" fill="none" stroke="#FFFFFF" stroke-width="0.6914" width="7.959" height="4.442"/>
		
			<rect id="rect4178-1-6-0-2-0" x="28.263" y="57.024" fill="#FFFFFF" stroke="#FFFFFF" stroke-width="0.6914" width="27.148" height="4.442"/>
		
			<rect id="rect4178-1-5-6-9-3" x="57.469" y="57.024" fill="none" stroke="#FFFFFF" stroke-width="0.6914" width="7.959" height="4.442"/>
		
			<rect id="rect4178-0-2-9-2" x="67.204" y="57.147" fill="#FFFFFF" stroke="#FFFFFF" stroke-width="0.6914" width="7.959" height="4.442"/>
	</g>
	<g id="g6859" transform="matrix(0.84745935,0,0,0.84745935,6.1294939,-1.4238882)">
		<circle id="path6779" fill="#FFFFFF" stroke="#FFFFFF" stroke-width="0.5236" cx="42.846" cy="37.372" r="2.185"/>
		<path id="path6834" fill="none" stroke="#FFFFFF" stroke-width="3.9328" d="M47.434,32.901c-1.183-1.319-2.851-2.102-4.621-2.172
			c-1.771-0.07-3.494,0.58-4.778,1.802"/>
		<path id="path6846" fill="none" stroke="#FFFFFF" stroke-width="3.896" d="M52.116,28.359c-2.377-2.648-5.724-4.22-9.279-4.36
			c-3.555-0.139-7.015,1.166-9.592,3.618"/>
		<path id="path6857" fill="none" stroke="#FFFFFF" stroke-width="3.9228" d="M57.047,23.724c-3.451-3.976-8.364-6.385-13.62-6.679
			c-5.256-0.294-10.407,1.551-14.28,5.116"/>
	</g>
</g>
</svg>
